<?xml version="1.0" encoding="utf-8"?>
<!-- Generator: Adobe Illustrator 26.2.1, SVG Export Plug-In . SVG Version: 6.00 Build 0)  -->
<svg version="1.1" xmlns="http://www.w3.org/2000/svg" xmlns:xlink="http://www.w3.org/1999/xlink" x="0px" y="0px"
	 viewBox="0 0 919.4 468.8" style="enable-background:new 0 0 919.4 468.8;" xml:space="preserve">
<style type="text/css">
	.st0{fill:#E2DEE3;}
	.st1{fill:#D29856;}
	.st2{fill:#D4CFD2;}
	.st3{fill:#D4AFA2;}
	.st4{fill:#CF9857;}
	.st5{fill:#DB9893;}
</style>
<g id="Calque_1">
	<path class="st0" d="M523,176.2c0-2.1,0.1-4.3,0.2-6.6c0,0,0,0,0,0c-4-1-7.6-1.9-11-2.9c-3-0.9-6.3-0.2-8.7,1.8
		c-11.3,9.5-44.8,37.1-63.7,46c-11.3,5.4-22.9,9.8-34.9,13.2L404,228l-0.9-0.4c-25.8-12.8-56.9-55-64.2-87.2c-0.5-1.3-0.8-2.6-0.8-4
		c0,0-8.5-67.9-19.6-93.5c-2-4.5-3.7-8.1-5.4-11.4l-0.3-0.6c-2.1-4.1-4.2-7.9-6.3-11.5c-2.7-4.6-5.5-8.8-8.3-12.9c0,0,0,0,0,0
		c0.2,3,0.3,6.1,0.3,9.2c0,0.5,0,1-0.1,1.5c0.1,1.7,0,3.3-0.1,5c-1.3,28.9-11.9,56.7-30.3,79.1l-1.7,2.1c0,0,0,0,0,0l-1.9-1.9
		c-18.3-17.9-32.6-43.4-41.5-73.9c-2.6-9-4.7-18.2-6.2-27.5c0,0,0,0,0,0c-1.1,6.8-44.1,96.2-55.6,161.7
		c-9.3,52.7,7.7,82.5,10.2,95.4c0.6,3.1,3.1,7.1,5.5,9.2c3.3,2.9,6.6,5.8,10.2,8.4c0,0,42.8,29.6,68.3,33.9l3.2,0.5l2.2,0.3
		c9.9,1.4,133.4-60.9,206.4-81.3c1.6-0.5,39-12.9,54.6-16.2c2.5-0.5,5-1,7.6-1.5c0,0,0,0,0,0C525.1,199.5,522.9,187.9,523,176.2z"/>
	<path class="st1" d="M189,288.7c-3.8-2.8-7.4-5.7-10.9-8.8c-1.4-1.2-3.7-0.7-4.3,1.1c-1.6,4.6-4,10.2-5.7,14.3
		c-1.5,3.6-4.1,6.6-7.4,8.5C131,321.4,26.7,391.8,11.5,426.8c-0.9,2.2-1.8,4.3-2.5,6.3c-0.4,1.1-0.1,2.3,0.8,3.1
		c11.5,9.2,21.8,19.8,30.8,31.5c1.3,1.7,3.9,1.3,4.7-0.7c7-18.2,23.3-46.1,24.3-47.9c0-0.1,0.1-0.1,0.1-0.2
		c20.4-29.3,49.2-54.1,83.2-71.8c27.4-14.1,57-23.5,87.6-27.5h0c2.9-0.4,3.2-4.4,0.4-5.3c-18.3-5.5-35.6-14-51.2-25.3L189,288.7z"/>
	<path class="st2" d="M844,414.2c0-0.2-0.1-0.4-0.1-0.5c-3.7-17.7-5.6-35.7-5.6-53.7c0-1,0-2,0-3h0c-33.9,0-62.7-23.5-73.1-56.1
		c-1.2-3.8-2.8-7.5-4.8-11c-6.2-11.2-19.5-35.9-23.1-51.6c-1.2-5.3-2.1-10.7-2.7-16.2c-0.3-3-3-5.3-6-5.1
		c-8.6,0.6-17.1,1.4-25.6,2.3c-2,0.2-3.8,1.6-4.6,3.5c0,0.1-0.1,0.2-0.1,0.3C677,273.5,574.6,338,570.8,366.5
		c-3.6,27.1,29.3,46.1,50.7,63.2c62.8,49.8,150.9,52.2,216.3,6c0.8-0.6,1.5-1.3,1.9-2.2l0,0C843.4,427.8,844.9,420.9,844,414.2z"/>
	<path class="st3" d="M916.1,244.6L916.1,244.6c-1-3.3-2.1-6.5-3.4-9.7c-1.5-2.9-2.3-5-3.1-6.2c0,0,0.1,0,0.1,0
		c-4.6-8.9-10.7-16.9-18.2-23.5c-13.5-12.2-31-19-49.2-19.1c-22,0-41.8,9.9-55.9,25.7c-2.1,2.3-4,4.8-5.8,7.3
		c-6,8.5-10.4,18-12.9,28.1c-3.6,14.4-3.6,29.4,0,43.8l0,0c8.9,35.3,38.9,61.3,74.6,61.3l0,0c0,0,3.4-0.1,3.4-0.1h0
		c10.3-0.5,20.4-3.2,29.6-7.9c24.8-12.7,42.3-39.1,44-70.2V274C919.1,264.1,918,254.3,916.1,244.6z"/>
	<path class="st2" d="M730.3,175.6c-1.4,0.8-2.7,1.6-4,2.4c-5.9,3.8-11.3,8.4-17,12.4c-0.1,0-0.2,0.1-0.3,0.1
		c-0.8,1.1-2.2,1.3-3.3,0.6c-0.4-0.3-0.7-0.7-0.9-1.2c0-0.1,0-0.1-0.1-0.2c-0.1-0.3-0.2-0.5-0.3-0.8c-3.5-10.1-6.2-20.6-9.3-30.8
		c-0.1-0.2-0.2-0.4-0.2-0.6c-2.8-2.4-5.7-4.6-8.9-6.6c-4.1-1.9-8.8-1.8-13.2-2.7c-0.8,1.7-1.4,3.5-1.9,5.3
		c-0.9,3.4-1.6,6.8-2.1,10.3c0.4,4.4,0.3,8.9,0.3,13.3c4.6,4.7,9.7,9.1,15,13c2.9,2.2,6,4.3,9.3,6.3c4.6,2.9,9.5,5.7,14.6,8.4
		c6,3.1,12.3,6,19,8.7l8-0.5c0-0.5-0.1-1,0-1.5c0-0.8,0-1.6,0-2.4v-0.7c0.1-4.6,0.4-9.1,0.9-13.5c0.8-7.4,2.2-14.7,4.2-21.9
		C736.9,174.1,733.6,175,730.3,175.6z"/>
	<path class="st4" d="M721.5,202.3c-0.1,0-0.1,0-0.2-0.1c-0.4-0.2-0.7-0.4-1-0.6c-2.2-1-4.4-2.3-6.4-3.7c0,0,0,0-0.1,0
		c-0.7-0.3-1.4-0.7-2-1.2l-0.6-0.3c-4.7-2.1-7.4-3.5-11.3-5.7c-0.7-0.2-1.4-0.4-2.1-0.6c-10.5,0-20.9-0.3-31.2-0.7
		c-8.2-0.3-16.3-0.9-24.3-1.5c-17.9-1.4-35.3-3.5-52-6.1c-14.1-2.2-27.7-4.9-40.7-8l-1.6-0.2c-6.2-0.9-12.3-2-18.3-3.2
		c-0.1,0-0.1,0-0.2,0v0.1c-1.4,13.2,1,26.5,6.8,38.4c13-2,26-3.4,39.1-4.1c7.7-0.5,15.3-0.7,23.1-0.7c13.1,0,26,0.6,38.7,1.8
		c6.7,0.6,13.3,1.4,19.8,2.4c12.7,1.9,25.2,4.4,37.3,7.3c0.8,0,1.6,0.2,2.4,0.3c0.4,0.1,0.9,0.2,1.3,0.4c2.7-0.4,5.5-0.7,8.2-1
		c11.3-1.2,22.7-2.1,34.4-2.7C740.6,211.6,729.4,206.4,721.5,202.3z"/>
</g>
<g id="Calque_2">
	<circle cx="510" cy="176.8" r="4"/>
</g>
<g id="Calque_3">
	<path d="M810.5,193.2c0,0,35.8-21.6,75.1,7c40.9,29.7,36.5,79.2,32.4,84.9c-4.1,5.7-42.9-50.9-42.9-50.9s9.6,31.8,2.2,21.8
		c-7.4-10-24.8-27.4-33.1-39.8c-8.3-12.4-45.7-15.7-45.7-15.7L810.5,193.2z"/>
</g>
<g id="Calque_4">
	<path d="M869.8,293.6c-8.4-2.4-16.8-12.4-19.5-16.1c-0.3-0.4,0.1-0.9,0.5-0.7l15.9,9.6c0.5,0.3,1,0.6,1.6,0.8l4.4,1.7
		c0.5,0.2,0.8,0.6,0.8,1.1l0,0.9C873.4,292.7,871.7,294.1,869.8,293.6C869.9,293.6,869.8,293.6,869.8,293.6z"/>
	<path d="M808.9,241.1c2.7,8.4,13,16.3,16.7,19c0.4,0.3,0.9-0.1,0.7-0.6L816.2,244c-0.3-0.5-0.6-1-0.8-1.5l-1.8-4.4
		c-0.2-0.5-0.6-0.7-1.1-0.7l-0.9,0C809.7,237.5,808.3,239.3,808.9,241.1C808.9,241.1,808.9,241.1,808.9,241.1z"/>
</g>
<g id="Calque_5">
	<path d="M817.4,325.7c-0.5-0.1-11.7-2.6-20.6-12.1c-9-9.5-9.7-21.3-9.7-21.8l0.2,0c2.1-0.1,3.9,1.3,4.4,3.3
		c0.9,3.9,3,10.3,8.1,15.7c5.2,5.5,11.3,8.4,15.1,9.8C816.7,321.4,817.8,323.5,817.4,325.7L817.4,325.7z"/>
</g>
<g id="Calque_7">
	<circle cx="825.8" cy="285.5" r="3.6"/>
</g>
<g id="Calque_6">
	<circle class="st5" cx="851.3" cy="313.8" r="10.2"/>
	<circle class="st5" cx="797.2" cy="265.4" r="10.2"/>
</g>
</svg>
